<?xml version="1.0" standalone="no"?>
<!DOCTYPE svg PUBLIC "-//W3C//DTD SVG 20010904//EN"
 "http://www.w3.org/TR/2001/REC-SVG-20010904/DTD/svg10.dtd">
<svg version="1.0" xmlns="http://www.w3.org/2000/svg"
 width="965.000000pt" height="1094.000000pt" viewBox="0 0 965.000000 1094.000000"
 preserveAspectRatio="xMidYMid meet">

<g transform="translate(0.000000,1094.000000) scale(0.100000,-0.100000)"
fill="#000000" stroke="none">
<path d="M4360 10547 c-428 -349 -2278 -1852 -3717 -3021 -422 -343 -642 -527
-643 -540 0 -10 17 -40 38 -66 l39 -49 254 207 c140 113 441 357 669 543 228
185 974 790 1656 1345 2037 1655 2165 1759 2174 1759 8 0 268 -211 2950 -2390
1806 -1467 1780 -1445 1794 -1451 22 -9 77 66 74 101 -3 33 153 -96 -1893
1566 -687 559 -1625 1320 -2082 1692 -458 372 -838 677 -845 676 -7 0 -218
-168 -468 -372z"/>
<path d="M4155 7897 c-65 -26 -83 -38 -96 -64 -9 -18 -14 -44 -11 -58 3 -17
75 -91 214 -221 115 -108 207 -198 206 -199 -2 -1 -64 -25 -138 -53 -74 -28
-142 -53 -151 -57 -11 -4 -46 29 -124 120 -121 141 -160 168 -240 168 -52 -1
-127 -25 -159 -52 -25 -22 -46 -65 -46 -95 0 -34 175 -529 205 -582 68 -117
220 -196 348 -180 29 4 153 45 277 91 123 46 225 83 225 82 1 -1 -15 -128 -36
-282 -36 -269 -37 -281 -21 -315 27 -55 62 -59 165 -20 93 35 122 56 142 104
7 17 66 180 130 361 64 182 120 334 124 338 5 5 180 73 389 151 209 79 394
154 410 167 42 33 72 90 78 146 13 108 -77 243 -204 305 -60 30 -75 33 -152
33 -84 -1 -89 -2 -405 -122 -176 -67 -324 -118 -330 -113 -5 4 -151 92 -324
194 -359 212 -342 207 -476 153z m163 -79 l35 -21 -78 -30 -77 -29 -26 25
c-14 15 -24 28 -21 30 7 6 113 46 123 46 5 1 24 -9 44 -21z m346 -205 c101
-59 181 -111 178 -114 -4 -3 -66 -29 -139 -56 l-132 -50 -123 114 c-68 63
-133 125 -146 137 l-23 23 83 31 c46 17 91 30 101 28 9 -2 100 -53 201 -113z
m1132 58 c90 -41 154 -127 154 -209 0 -77 -17 -87 -380 -223 -179 -67 -332
-123 -340 -126 -13 -3 -15 3 -12 35 5 54 -30 96 -82 96 -31 0 -36 3 -36 22 0
28 -44 64 -79 64 -53 0 -92 -61 -72 -113 6 -14 7 -28 3 -31 -8 -5 -142 -56
-147 -56 -1 0 -5 13 -8 30 -4 19 -17 34 -36 45 -42 21 -59 19 -92 -14 -38 -39
-38 -74 2 -113 l30 -31 -11 -70 c-6 -39 -12 -72 -13 -72 -1 -1 -113 -43 -249
-93 -188 -70 -258 -92 -296 -92 -92 0 -179 46 -227 118 -27 42 -195 513 -195
547 0 17 10 27 40 39 51 20 85 20 118 0 15 -9 81 -79 147 -155 96 -112 123
-138 139 -133 10 4 346 129 745 279 672 253 731 274 791 274 43 0 79 -6 106
-18z m-722 -658 c-24 -71 -75 -213 -112 -318 l-68 -190 -83 -33 c-46 -18 -86
-31 -89 -28 -7 7 67 569 76 578 9 8 293 116 309 117 8 1 -4 -46 -33 -126z
m-236 -665 c-14 -45 -24 -52 -92 -77 l-58 -22 7 38 c4 21 8 39 10 41 5 6 121
50 132 51 9 1 9 -7 1 -31z"/>
<path d="M5587 7549 c-28 -16 -49 -73 -38 -103 12 -30 48 -56 78 -56 12 0 34
11 49 24 72 62 -8 182 -89 135z"/>
<path d="M5294 7435 c-34 -14 -58 -58 -48 -89 19 -64 91 -87 133 -42 61 65 -4
165 -85 131z"/>
<path d="M4394 7100 c-55 -22 -70 -95 -29 -135 72 -73 182 33 113 109 -27 29
-55 38 -84 26z"/>
<path d="M3800 5825 l0 -45 1030 0 1030 0 0 45 0 45 -1030 0 -1030 0 0 -45z"/>
<path d="M3290 4195 l0 -455 90 0 90 0 0 35 0 35 40 -29 c112 -81 302 -60 405
45 21 21 50 64 64 94 22 47 26 69 26 151 0 90 -2 100 -35 165 -61 120 -173
182 -309 172 -65 -5 -115 -22 -158 -54 l-23 -16 0 156 0 156 -95 0 -95 0 0
-455z m440 34 c59 -33 83 -86 78 -169 -5 -102 -55 -159 -145 -167 -63 -7 -112
14 -149 63 -26 34 -29 45 -29 115 0 86 14 115 75 157 44 29 118 30 170 1z"/>
<path d="M6790 4195 l0 -455 95 0 95 0 0 455 0 455 -95 0 -95 0 0 -455z"/>
<path d="M7640 4495 l0 -155 -37 24 c-59 37 -108 49 -187 44 -207 -14 -340
-199 -296 -413 14 -71 44 -127 97 -177 102 -99 284 -116 393 -37 l40 29 0 -35
0 -35 90 0 90 0 0 455 0 455 -95 0 -95 0 0 -155z m-80 -267 c62 -42 75 -71 75
-158 0 -85 -12 -112 -69 -154 -39 -30 -143 -30 -182 0 -57 42 -69 69 -69 154
0 64 4 84 21 107 37 49 82 73 139 73 38 0 61 -6 85 -22z"/>
<path d="M1790 4520 l0 -80 150 0 150 0 0 -234 c0 -226 -1 -234 -23 -267 -44
-66 -139 -65 -212 2 l-44 41 -29 -34 c-16 -18 -42 -48 -58 -67 l-28 -34 38
-33 c80 -69 187 -98 310 -83 78 10 132 35 174 84 66 74 66 76 70 448 l3 337
-250 0 -251 0 0 -80z"/>
<path d="M4030 4593 c0 -5 63 -197 139 -428 l138 -420 109 -3 109 -3 95 285
c52 157 97 283 100 280 3 -3 46 -130 95 -282 l91 -277 108 0 109 0 138 420
c76 231 139 423 139 428 0 4 -43 7 -95 7 l-94 0 -99 -301 c-55 -166 -101 -298
-104 -293 -2 5 -47 141 -98 302 l-94 293 -95 -3 -94 -3 -96 -287 c-53 -158
-99 -289 -102 -292 -3 -3 -48 127 -100 289 l-94 295 -102 0 c-57 0 -103 -3
-103 -7z"/>
<path d="M2687 4399 c-93 -22 -184 -95 -228 -184 -20 -42 -24 -64 -24 -145 0
-99 12 -136 68 -212 32 -43 115 -95 182 -114 184 -52 396 46 451 209 64 189
-36 385 -226 441 -58 17 -162 20 -223 5z m194 -172 c44 -29 79 -98 79 -157 0
-54 -33 -125 -71 -153 -29 -21 -103 -33 -143 -23 -33 8 -83 51 -102 88 -8 16
-15 55 -15 88 -1 111 62 179 167 180 37 0 61 -6 85 -23z"/>
<path d="M5657 4399 c-93 -22 -184 -95 -228 -184 -20 -42 -24 -64 -24 -145 0
-99 12 -136 68 -212 32 -43 115 -95 182 -114 184 -52 396 46 451 209 64 189
-36 385 -226 441 -58 17 -162 20 -223 5z m194 -172 c44 -29 79 -98 79 -157 0
-54 -33 -125 -71 -153 -29 -21 -103 -33 -143 -23 -33 8 -83 51 -102 88 -8 16
-15 55 -15 88 -1 111 62 179 167 180 37 0 61 -6 85 -23z"/>
<path d="M6561 4395 c-24 -7 -61 -28 -82 -45 l-39 -31 0 41 0 40 -90 0 -90 0
0 -330 0 -330 94 0 94 0 4 193 c2 159 6 197 20 224 26 47 79 75 144 77 l54 1
0 88 0 87 -32 -1 c-18 0 -53 -6 -77 -14z"/>
<path d="M35 3976 c-22 -27 -35 -53 -33 -65 2 -13 263 -231 709 -593 798 -649
3117 -2533 3699 -3005 343 -279 389 -313 420 -313 31 0 80 36 445 333 226 183
1301 1057 2390 1941 1802 1464 1980 1611 1983 1640 2 23 -6 41 -29 69 -17 21
-37 36 -44 33 -7 -2 -145 -112 -307 -243 -161 -132 -867 -705 -1568 -1275
-701 -570 -1633 -1327 -2070 -1682 -437 -355 -797 -646 -800 -646 -3 0 -219
174 -480 386 -261 212 -556 452 -655 532 -99 81 -670 545 -1270 1032 -600 487
-1369 1112 -1709 1389 -340 276 -625 505 -631 508 -7 2 -29 -16 -50 -41z"/>
</g>
</svg>
